<svg xmlns="http://www.w3.org/2000/svg" xmlns:xlink="http://www.w3.org/1999/xlink" width="716" zoomAndPan="magnify" viewBox="0 0 537 189.000001" height="252" preserveAspectRatio="xMidYMid meet"><defs><clipPath id="75c1b08980"><path d="M 1.414062 0 L 535.585938 0 L 535.585938 188.003906 L 1.414062 188.003906 Z M 1.414062 0 " clip-rule="nonzero"></path></clipPath><clipPath id="8d30de8153"><path d="M 35.410156 2.167969 L 164 2.167969 L 164 180 L 35.410156 180 Z M 35.410156 2.167969 " clip-rule="nonzero"></path></clipPath><clipPath id="2eb40fbcbc"><path d="M 35.410156 2.167969 L 171.9375 2.167969 L 171.9375 187 L 35.410156 187 Z M 35.410156 2.167969 " clip-rule="nonzero"></path></clipPath><clipPath id="66145a3dc1"><path d="M 35.410156 2.167969 L 171.9375 2.167969 L 171.9375 187.1875 L 35.410156 187.1875 Z M 35.410156 2.167969 " clip-rule="nonzero"></path></clipPath><clipPath id="d76b5787ff"><path d="M 190.054688 2.167969 L 313 2.167969 L 313 178 L 190.054688 178 Z M 190.054688 2.167969 " clip-rule="nonzero"></path></clipPath><clipPath id="27571ad470"><path d="M 207 30 L 321 30 L 321 187.1875 L 207 187.1875 Z M 207 30 " clip-rule="nonzero"></path></clipPath><clipPath id="c5ddfe8429"><path d="M 190.054688 2.167969 L 321.359375 2.167969 L 321.359375 187.1875 L 190.054688 187.1875 Z M 190.054688 2.167969 " clip-rule="nonzero"></path></clipPath><clipPath id="7a776b884d"><path d="M 340 2.167969 L 469 2.167969 L 469 180 L 340 180 Z M 340 2.167969 " clip-rule="nonzero"></path></clipPath><clipPath id="092c077d4a"><path d="M 340 2.167969 L 476 2.167969 L 476 187 L 340 187 Z M 340 2.167969 " clip-rule="nonzero"></path></clipPath><clipPath id="055c32d319"><path d="M 339.714844 2.167969 L 476 2.167969 L 476 187.1875 L 339.714844 187.1875 Z M 339.714844 2.167969 " clip-rule="nonzero"></path></clipPath><clipPath id="93535a1ac8"><path d="M 4 2 L 27 2 L 27 35 L 4 35 Z M 4 2 " clip-rule="nonzero"></path></clipPath><clipPath id="815bcc303f"><path d="M 10.78125 0 L 30.078125 5.773438 L 20.671875 37.222656 L 1.375 31.449219 Z M 10.78125 0 " clip-rule="nonzero"></path></clipPath><clipPath id="ccc10724fa"><path d="M 10.78125 0 L 30.078125 5.773438 L 20.671875 37.222656 L 1.375 31.449219 Z M 10.78125 0 " clip-rule="nonzero"></path></clipPath><clipPath id="bfd37b3485"><path d="M 1.414062 0 L 30 0 L 30 38 L 1.414062 38 Z M 1.414062 0 " clip-rule="nonzero"></path></clipPath><clipPath id="94c9f326e6"><path d="M 10.78125 0 L 30.078125 5.773438 L 20.671875 37.222656 L 1.375 31.449219 Z M 10.78125 0 " clip-rule="nonzero"></path></clipPath><clipPath id="3b58a18325"><path d="M 10.78125 0 L 30.078125 5.773438 L 20.671875 37.222656 L 1.375 31.449219 Z M 10.78125 0 " clip-rule="nonzero"></path></clipPath><clipPath id="aff9a44dc4"><path d="M 7 8 L 23 8 L 23 32 L 7 32 Z M 7 8 " clip-rule="nonzero"></path></clipPath><clipPath id="a0d3c2499b"><path d="M 10.78125 0 L 30.078125 5.773438 L 20.671875 37.222656 L 1.375 31.449219 Z M 10.78125 0 " clip-rule="nonzero"></path></clipPath><clipPath id="f4956374cf"><path d="M 10.78125 0 L 30.078125 5.773438 L 20.671875 37.222656 L 1.375 31.449219 Z M 10.78125 0 " clip-rule="nonzero"></path></clipPath><clipPath id="195a97f76a"><path d="M 508 152 L 532 152 L 532 186 L 508 186 Z M 508 152 " clip-rule="nonzero"></path></clipPath><clipPath id="6c926bcb1d"><path d="M 504.621094 157.082031 L 523.398438 149.792969 L 535.277344 180.398438 L 516.496094 187.683594 Z M 504.621094 157.082031 " clip-rule="nonzero"></path></clipPath><clipPath id="fd9db13733"><path d="M 504.621094 157.082031 L 523.398438 149.792969 L 535.277344 180.398438 L 516.496094 187.683594 Z M 504.621094 157.082031 " clip-rule="nonzero"></path></clipPath><clipPath id="01bde3856f"><path d="M 504 149 L 535 149 L 535 188 L 504 188 Z M 504 149 " clip-rule="nonzero"></path></clipPath><clipPath id="f9401e4a7d"><path d="M 504.621094 157.082031 L 523.398438 149.792969 L 535.277344 180.398438 L 516.496094 187.683594 Z M 504.621094 157.082031 " clip-rule="nonzero"></path></clipPath><clipPath id="c2b9aa0c91"><path d="M 504.621094 157.082031 L 523.398438 149.792969 L 535.277344 180.398438 L 516.496094 187.683594 Z M 504.621094 157.082031 " clip-rule="nonzero"></path></clipPath><clipPath id="46e3245de2"><path d="M 511 158 L 529 158 L 529 182 L 511 182 Z M 511 158 " clip-rule="nonzero"></path></clipPath><clipPath id="767979096e"><path d="M 504.621094 157.082031 L 523.398438 149.792969 L 535.277344 180.398438 L 516.496094 187.683594 Z M 504.621094 157.082031 " clip-rule="nonzero"></path></clipPath><clipPath id="a761e7da36"><path d="M 504.621094 157.082031 L 523.398438 149.792969 L 535.277344 180.398438 L 516.496094 187.683594 Z M 504.621094 157.082031 " clip-rule="nonzero"></path></clipPath></defs><g clip-path="url(#75c1b08980)"><path fill="#ffffff" d="M 1.414062 0 L 535.585938 0 L 535.585938 188.003906 L 1.414062 188.003906 Z M 1.414062 0 " fill-opacity="1" fill-rule="nonzero"></path></g><g clip-path="url(#8d30de8153)"><path fill="#000000" d="M 163.917969 101.265625 L 145.628906 101.265625 L 145.628906 2.863281 L 94.542969 2.863281 L 35.824219 101.265625 L 35.824219 135.722656 L 111.128906 135.722656 L 111.128906 179.222656 L 145.589844 179.222656 L 145.589844 135.722656 L 163.875 135.722656 L 163.875 101.265625 Z M 78.410156 101.265625 L 110.339844 38.441406 L 111.171875 38.441406 L 111.171875 101.265625 Z M 78.410156 101.265625 " fill-opacity="1" fill-rule="nonzero"></path></g><g clip-path="url(#2eb40fbcbc)"><path fill="#545454" d="M 89.484375 101.265625 L 78.371094 101.265625 L 110.300781 38.441406 L 111.128906 38.441406 L 111.128906 58.675781 Z M 152.84375 46.03125 L 152.84375 10.449219 L 145.628906 2.863281 L 145.628906 101.222656 L 152.886719 101.222656 L 152.886719 46.03125 Z M 163.917969 101.265625 L 163.917969 135.722656 L 145.628906 135.722656 L 145.628906 179.222656 L 111.171875 179.222656 L 118.425781 186.808594 L 152.886719 186.808594 L 152.886719 143.3125 L 171.171875 143.3125 L 171.171875 108.851562 Z M 111.128906 135.722656 L 35.824219 135.722656 L 43.082031 143.3125 L 111.171875 143.3125 L 111.171875 135.722656 Z M 111.128906 135.722656 " fill-opacity="1" fill-rule="nonzero"></path></g><g clip-path="url(#66145a3dc1)"><path fill="#000000" d="M 111.542969 101.265625 L 111.542969 38.398438 C 111.542969 38.152344 111.378906 37.984375 111.128906 37.984375 L 110.300781 37.984375 C 110.132812 37.984375 110.007812 38.066406 109.925781 38.191406 L 77.996094 101.015625 C 77.914062 101.140625 77.957031 101.304688 77.996094 101.429688 C 78.078125 101.554688 78.203125 101.636719 78.371094 101.636719 L 111.128906 101.636719 C 111.378906 101.679688 111.542969 101.472656 111.542969 101.265625 Z M 79.074219 100.847656 L 110.589844 38.855469 L 110.757812 38.855469 L 110.757812 58.554688 L 89.277344 100.847656 Z M 90.1875 100.847656 L 110.757812 60.378906 L 110.757812 100.847656 Z M 171.464844 108.5625 L 164.207031 100.972656 C 164.207031 100.972656 164.207031 100.972656 164.164062 100.972656 C 164.125 100.933594 164.125 100.933594 164.082031 100.890625 C 164.082031 100.890625 164.042969 100.890625 164.042969 100.890625 C 164 100.890625 163.957031 100.890625 163.917969 100.847656 C 163.917969 100.847656 163.917969 100.847656 163.875 100.847656 L 153.21875 100.847656 L 153.21875 10.449219 C 153.21875 10.328125 153.175781 10.242188 153.09375 10.160156 L 145.921875 2.570312 C 145.878906 2.53125 145.835938 2.53125 145.835938 2.488281 C 145.835938 2.488281 145.796875 2.488281 145.796875 2.488281 C 145.753906 2.488281 145.710938 2.488281 145.671875 2.449219 C 145.671875 2.449219 145.671875 2.449219 145.628906 2.449219 L 94.542969 2.449219 C 94.375 2.449219 94.253906 2.53125 94.167969 2.65625 L 35.453125 101.015625 C 35.410156 101.097656 35.410156 101.179688 35.410156 101.265625 L 35.410156 135.722656 C 35.410156 135.722656 35.410156 135.722656 35.410156 135.765625 C 35.410156 135.804688 35.410156 135.847656 35.453125 135.890625 C 35.453125 135.890625 35.453125 135.929688 35.453125 135.929688 C 35.453125 135.972656 35.492188 136.011719 35.535156 136.054688 L 42.792969 143.644531 C 42.875 143.726562 43 143.769531 43.082031 143.769531 L 110.757812 143.769531 L 110.757812 179.222656 C 110.757812 179.222656 110.757812 179.222656 110.757812 179.261719 C 110.757812 179.304688 110.757812 179.347656 110.796875 179.386719 C 110.796875 179.386719 110.796875 179.429688 110.796875 179.429688 C 110.796875 179.472656 110.839844 179.511719 110.878906 179.554688 L 118.136719 187.140625 C 118.21875 187.226562 118.34375 187.265625 118.425781 187.265625 L 152.886719 187.265625 C 153.136719 187.265625 153.300781 187.101562 153.300781 186.851562 L 153.300781 143.726562 L 171.171875 143.726562 C 171.421875 143.726562 171.589844 143.558594 171.589844 143.3125 L 171.589844 108.851562 C 171.589844 108.726562 171.546875 108.644531 171.464844 108.5625 Z M 152.429688 100.847656 L 146.003906 100.847656 L 146.003906 3.898438 L 152.429688 10.617188 Z M 36.238281 101.347656 L 94.792969 3.277344 L 145.214844 3.277344 L 145.214844 101.265625 C 145.214844 101.511719 145.382812 101.679688 145.628906 101.679688 L 163.542969 101.679688 L 163.542969 135.308594 L 145.671875 135.308594 C 145.421875 135.308594 145.257812 135.472656 145.257812 135.722656 L 145.257812 178.808594 L 111.625 178.808594 L 111.625 135.765625 C 111.625 135.515625 111.460938 135.351562 111.210938 135.351562 L 36.238281 135.351562 Z M 43.246094 142.898438 L 36.777344 136.136719 L 110.714844 136.136719 L 110.714844 142.898438 Z M 170.757812 142.898438 L 152.886719 142.898438 C 152.636719 142.898438 152.472656 143.0625 152.472656 143.3125 L 152.472656 186.394531 L 118.59375 186.394531 L 112.125 179.636719 L 145.628906 179.636719 C 145.878906 179.636719 146.042969 179.472656 146.042969 179.222656 L 146.042969 136.136719 L 163.917969 136.136719 C 164.164062 136.136719 164.332031 135.972656 164.332031 135.722656 L 164.332031 102.300781 L 170.757812 109.019531 Z M 170.757812 142.898438 " fill-opacity="1" fill-rule="nonzero"></path></g><g clip-path="url(#d76b5787ff)"><path fill="#000000" d="M 255.0625 2.574219 L 248.320312 2.574219 C 216.375 2.574219 190.476562 30.148438 190.476562 64.136719 L 190.476562 115.488281 C 190.476562 149.476562 216.375 177.050781 248.320312 177.050781 L 255.0625 177.050781 C 287.007812 177.050781 312.90625 149.476562 312.90625 115.488281 L 312.90625 64.136719 C 312.90625 30.148438 287.007812 2.574219 255.0625 2.574219 Z M 282.226562 112.546875 C 282.226562 128.765625 269.890625 141.875 254.652344 141.875 L 248.6875 141.875 C 233.449219 141.875 221.113281 128.765625 221.113281 112.546875 L 221.113281 67.078125 C 221.113281 50.859375 233.449219 37.746094 248.6875 37.746094 L 254.652344 37.746094 C 269.890625 37.746094 282.226562 50.859375 282.226562 67.078125 Z M 282.226562 112.546875 " fill-opacity="1" fill-rule="nonzero"></path></g><g clip-path="url(#27571ad470)"><path fill="#545454" d="M 221.15625 112.546875 L 221.15625 67.078125 C 221.15625 50.859375 233.492188 37.746094 248.730469 37.746094 L 254.695312 37.746094 C 265.476562 37.746094 274.792969 44.324219 279.328125 53.925781 C 274.667969 50.125 268.867188 47.835938 262.535156 47.835938 L 256.574219 47.835938 C 241.335938 47.835938 229 60.949219 229 77.167969 L 229 122.636719 C 229 127.375 230.058594 131.828125 231.941406 135.789062 C 225.363281 130.4375 221.15625 122.023438 221.15625 112.546875 Z M 303.347656 30.230469 C 309.394531 39.953125 312.90625 51.597656 312.90625 64.136719 L 312.90625 115.488281 C 312.90625 149.476562 287.007812 177.050781 255.0625 177.050781 L 248.320312 177.050781 C 232.59375 177.050781 218.335938 170.351562 207.878906 159.484375 C 218.214844 176.152344 235.984375 187.140625 256.164062 187.140625 L 262.90625 187.140625 C 294.851562 187.140625 320.75 159.566406 320.75 125.578125 L 320.75 74.226562 C 320.75 56.988281 314.089844 41.382812 303.347656 30.230469 Z M 303.347656 30.230469 " fill-opacity="1" fill-rule="nonzero"></path></g><g clip-path="url(#c5ddfe8429)"><path fill="#000000" d="M 220.789062 113.933594 C 220.789062 113.976562 220.789062 114.058594 220.789062 114.097656 C 220.828125 114.546875 220.828125 115.039062 220.867188 115.488281 C 220.867188 115.527344 220.867188 115.570312 220.867188 115.609375 C 221.644531 123.699219 225.484375 131.050781 231.652344 136.074219 C 231.652344 136.074219 231.695312 136.117188 231.695312 136.117188 C 236.390625 139.957031 242.316406 142.246094 248.6875 142.246094 L 254.652344 142.246094 C 270.09375 142.246094 282.636719 128.886719 282.636719 112.503906 L 282.636719 67.078125 C 282.636719 62.300781 281.574219 57.804688 279.695312 53.800781 C 279.695312 53.800781 279.695312 53.761719 279.695312 53.761719 C 275.570312 45.019531 267.847656 39.136719 258.984375 37.707031 C 258.984375 37.707031 258.941406 37.707031 258.941406 37.707031 C 258.492188 37.625 258.042969 37.582031 257.554688 37.503906 C 257.554688 37.503906 257.554688 37.503906 257.511719 37.503906 C 257.105469 37.460938 256.695312 37.421875 256.285156 37.421875 C 256.207031 37.421875 256.082031 37.421875 256 37.421875 C 255.550781 37.378906 255.144531 37.378906 254.695312 37.378906 L 248.730469 37.378906 C 246.320312 37.378906 243.992188 37.707031 241.742188 38.320312 C 241.007812 38.523438 240.3125 38.769531 239.578125 39.015625 C 239.25 39.136719 238.925781 39.257812 238.558594 39.421875 C 236.269531 40.363281 234.105469 41.628906 232.144531 43.179688 C 231.898438 43.386719 231.652344 43.546875 231.449219 43.753906 C 230.917969 44.203125 230.429688 44.652344 229.898438 45.140625 C 224.257812 50.574219 220.707031 58.417969 220.707031 67.160156 L 220.707031 112.628906 C 220.746094 113.035156 220.746094 113.484375 220.789062 113.933594 Z M 281.820312 112.546875 C 281.820312 128.476562 269.644531 141.46875 254.652344 141.46875 L 248.6875 141.46875 C 242.519531 141.46875 236.800781 139.261719 232.226562 135.503906 C 230.347656 131.460938 229.367188 127.128906 229.367188 122.636719 L 229.367188 77.167969 C 229.367188 61.238281 241.539062 48.246094 256.53125 48.246094 L 262.496094 48.246094 C 268.5 48.246094 274.179688 50.289062 278.960938 54.167969 C 280.796875 58.050781 281.820312 62.421875 281.820312 67.078125 Z M 254.695312 38.15625 C 255.101562 38.15625 255.550781 38.15625 255.960938 38.195312 C 256.042969 38.195312 256.125 38.195312 256.246094 38.195312 C 257.105469 38.238281 258.003906 38.359375 258.820312 38.484375 C 258.820312 38.484375 258.859375 38.484375 258.859375 38.484375 C 267.070312 39.832031 274.097656 45.140625 278.140625 52.496094 C 273.527344 49.1875 268.175781 47.429688 262.535156 47.429688 L 256.574219 47.429688 C 241.132812 47.429688 228.589844 60.789062 228.589844 77.167969 L 228.589844 122.636719 C 228.589844 126.679688 229.324219 130.5625 230.796875 134.238281 C 230.671875 134.15625 230.589844 134.035156 230.46875 133.953125 C 230.46875 133.953125 230.429688 133.910156 230.429688 133.910156 C 226.261719 129.867188 223.277344 124.472656 222.09375 118.386719 C 222.09375 118.347656 222.09375 118.304688 222.054688 118.265625 C 221.972656 117.855469 221.890625 117.40625 221.847656 117 C 221.847656 116.875 221.808594 116.710938 221.808594 116.589844 C 221.769531 116.261719 221.726562 115.894531 221.6875 115.570312 C 221.644531 115.324219 221.644531 115.078125 221.644531 114.792969 C 221.644531 114.546875 221.605469 114.300781 221.605469 114.058594 C 221.5625 113.566406 221.5625 113.035156 221.5625 112.546875 L 221.5625 67.078125 C 221.5625 51.148438 233.738281 38.15625 248.730469 38.15625 Z M 303.632812 29.945312 C 293.175781 13.195312 275.324219 2.167969 255.0625 2.167969 L 248.320312 2.167969 C 216.210938 2.167969 190.066406 29.945312 190.066406 64.136719 L 190.066406 115.488281 C 190.066406 132.765625 196.765625 148.414062 207.550781 159.6875 C 207.550781 159.6875 207.550781 159.6875 207.550781 159.730469 C 218.378906 177.171875 236.554688 187.546875 256.164062 187.546875 L 262.90625 187.546875 C 295.015625 187.546875 321.160156 159.769531 321.160156 125.578125 L 321.160156 74.226562 C 321.160156 57.4375 314.949219 41.710938 303.632812 29.945312 Z M 190.882812 64.136719 C 190.882812 30.394531 216.660156 2.984375 248.320312 2.984375 L 255.0625 2.984375 C 278.304688 2.984375 298.363281 17.730469 307.390625 38.933594 C 307.433594 39.015625 307.472656 39.09375 307.515625 39.175781 C 307.839844 39.914062 308.125 40.648438 308.414062 41.382812 C 308.453125 41.546875 308.535156 41.667969 308.578125 41.832031 C 308.699219 42.199219 308.820312 42.566406 308.945312 42.894531 C 309.027344 43.140625 309.105469 43.386719 309.1875 43.628906 C 309.351562 44.121094 309.515625 44.570312 309.636719 45.058594 C 309.761719 45.425781 309.84375 45.796875 309.964844 46.164062 C 310.046875 46.449219 310.128906 46.734375 310.210938 47.019531 C 310.332031 47.386719 310.414062 47.796875 310.539062 48.164062 C 310.578125 48.367188 310.660156 48.613281 310.699219 48.816406 C 310.824219 49.390625 310.988281 50.003906 311.109375 50.574219 C 311.148438 50.777344 311.191406 50.984375 311.230469 51.1875 C 311.3125 51.675781 311.4375 52.167969 311.515625 52.617188 C 311.558594 52.78125 311.558594 52.945312 311.597656 53.105469 C 311.722656 53.71875 311.804688 54.375 311.886719 55.027344 C 311.925781 55.191406 311.925781 55.3125 311.925781 55.476562 C 312.007812 56.007812 312.046875 56.539062 312.128906 57.070312 C 312.128906 57.234375 312.171875 57.398438 312.171875 57.558594 C 312.253906 58.214844 312.292969 58.867188 312.335938 59.519531 C 312.335938 59.644531 312.335938 59.726562 312.335938 59.847656 C 312.375 60.417969 312.417969 60.992188 312.417969 61.5625 C 312.417969 61.726562 312.417969 61.929688 312.417969 62.09375 C 312.417969 62.75 312.457031 63.441406 312.457031 64.097656 L 312.457031 115.445312 C 312.457031 149.148438 286.679688 176.601562 255.019531 176.601562 L 248.28125 176.601562 C 247.789062 176.601562 247.300781 176.601562 246.808594 176.601562 C 246.6875 176.601562 246.5625 176.601562 246.441406 176.601562 C 246.074219 176.601562 245.746094 176.558594 245.378906 176.558594 C 245.257812 176.558594 245.132812 176.558594 245.011719 176.519531 C 244.644531 176.476562 244.277344 176.476562 243.910156 176.4375 C 243.828125 176.4375 243.703125 176.4375 243.621094 176.394531 C 243.214844 176.355469 242.847656 176.3125 242.4375 176.273438 C 242.398438 176.273438 242.316406 176.273438 242.273438 176.273438 C 241.824219 176.234375 241.417969 176.191406 240.96875 176.109375 C 240.96875 176.109375 240.925781 176.109375 240.925781 176.109375 C 212.78125 172.269531 190.882812 146.574219 190.882812 115.488281 Z M 320.339844 125.578125 C 320.339844 159.28125 294.5625 186.730469 262.90625 186.730469 L 256.164062 186.730469 C 238.066406 186.730469 221.238281 177.746094 210.371094 162.507812 C 219.070312 170.472656 229.609375 175.457031 240.886719 176.96875 C 240.886719 176.96875 240.925781 176.96875 240.925781 176.96875 C 241.375 177.007812 241.785156 177.089844 242.234375 177.132812 C 242.316406 177.132812 242.398438 177.132812 242.519531 177.171875 C 242.886719 177.214844 243.253906 177.253906 243.621094 177.292969 C 243.746094 177.292969 243.867188 177.335938 244.03125 177.335938 C 244.359375 177.375 244.683594 177.375 245.054688 177.417969 C 245.214844 177.417969 245.339844 177.417969 245.503906 177.457031 C 245.828125 177.457031 246.15625 177.5 246.523438 177.5 C 246.644531 177.5 246.808594 177.5 246.933594 177.5 C 247.421875 177.5 247.871094 177.5 248.363281 177.5 L 255.101562 177.5 C 287.210938 177.5 313.355469 149.71875 313.355469 115.527344 L 313.355469 64.136719 C 313.355469 63.523438 313.355469 62.910156 313.316406 62.300781 C 313.316406 62.09375 313.316406 61.929688 313.316406 61.726562 C 313.316406 61.277344 313.273438 60.828125 313.273438 60.417969 C 313.273438 60.214844 313.234375 60.011719 313.234375 59.808594 C 313.191406 59.359375 313.152344 58.867188 313.109375 58.417969 C 313.109375 58.253906 313.070312 58.132812 313.070312 57.96875 C 313.027344 57.355469 312.949219 56.742188 312.867188 56.171875 C 312.867188 56.046875 312.824219 55.925781 312.824219 55.761719 C 312.785156 55.273438 312.703125 54.824219 312.621094 54.375 C 312.578125 54.167969 312.539062 53.964844 312.539062 53.761719 C 312.457031 53.351562 312.417969 52.945312 312.335938 52.578125 C 312.292969 52.371094 312.253906 52.128906 312.210938 51.921875 C 312.128906 51.472656 312.046875 50.984375 311.925781 50.535156 C 311.886719 50.246094 311.804688 49.960938 311.722656 49.714844 C 311.640625 49.347656 311.558594 48.941406 311.4375 48.574219 C 311.355469 48.285156 311.273438 48 311.230469 47.714844 C 311.148438 47.46875 311.109375 47.183594 311.027344 46.9375 C 310.945312 46.613281 310.863281 46.285156 310.742188 45.957031 C 310.699219 45.753906 310.617188 45.589844 310.578125 45.386719 C 310.210938 44.121094 309.800781 42.894531 309.351562 41.667969 C 309.3125 41.585938 309.3125 41.503906 309.269531 41.464844 C 308.25 38.726562 307.066406 36.074219 305.675781 33.5 C 315.195312 44.734375 320.382812 59.070312 320.382812 74.351562 L 320.382812 125.578125 Z M 320.339844 125.578125 " fill-opacity="1" fill-rule="nonzero"></path></g><g clip-path="url(#7a776b884d)"><path fill="#000000" d="M 468.222656 101.265625 L 449.933594 101.265625 L 449.933594 2.863281 L 398.847656 2.863281 L 340.128906 101.265625 L 340.128906 135.722656 L 415.433594 135.722656 L 415.433594 179.222656 L 449.894531 179.222656 L 449.894531 135.722656 L 468.179688 135.722656 L 468.179688 101.265625 Z M 382.71875 101.265625 L 414.648438 38.441406 L 415.476562 38.441406 L 415.476562 101.265625 Z M 382.71875 101.265625 " fill-opacity="1" fill-rule="nonzero"></path></g><g clip-path="url(#092c077d4a)"><path fill="#545454" d="M 393.789062 101.265625 L 382.675781 101.265625 L 414.605469 38.441406 L 415.433594 38.441406 L 415.433594 58.675781 Z M 457.148438 46.03125 L 457.148438 10.449219 L 449.933594 2.863281 L 449.933594 101.222656 L 457.191406 101.222656 L 457.191406 46.03125 Z M 468.222656 101.265625 L 468.222656 135.722656 L 449.933594 135.722656 L 449.933594 179.222656 L 415.476562 179.222656 L 422.734375 186.808594 L 457.191406 186.808594 L 457.191406 143.3125 L 475.480469 143.3125 L 475.480469 108.851562 Z M 415.433594 135.722656 L 340.128906 135.722656 L 347.386719 143.3125 L 415.476562 143.3125 L 415.476562 135.722656 Z M 415.433594 135.722656 " fill-opacity="1" fill-rule="nonzero"></path></g><g clip-path="url(#055c32d319)"><path fill="#000000" d="M 415.847656 101.265625 L 415.847656 38.398438 C 415.847656 38.152344 415.683594 37.984375 415.433594 37.984375 L 414.605469 37.984375 C 414.4375 37.984375 414.316406 38.066406 414.230469 38.191406 L 382.300781 101.015625 C 382.21875 101.140625 382.261719 101.304688 382.300781 101.429688 C 382.386719 101.554688 382.507812 101.636719 382.675781 101.636719 L 415.433594 101.636719 C 415.683594 101.679688 415.847656 101.472656 415.847656 101.265625 Z M 383.378906 100.847656 L 414.894531 38.855469 L 415.0625 38.855469 L 415.0625 58.554688 L 393.582031 100.847656 Z M 394.492188 100.847656 L 415.0625 60.378906 L 415.0625 100.847656 Z M 475.769531 108.5625 L 468.511719 100.972656 C 468.511719 100.972656 468.511719 100.972656 468.472656 100.972656 C 468.429688 100.933594 468.429688 100.933594 468.386719 100.890625 C 468.386719 100.890625 468.347656 100.890625 468.347656 100.890625 C 468.304688 100.890625 468.261719 100.890625 468.222656 100.847656 C 468.222656 100.847656 468.222656 100.847656 468.179688 100.847656 L 457.523438 100.847656 L 457.523438 10.449219 C 457.523438 10.328125 457.480469 10.242188 457.398438 10.160156 L 450.226562 2.570312 C 450.183594 2.53125 450.140625 2.53125 450.140625 2.488281 C 450.140625 2.488281 450.101562 2.488281 450.101562 2.488281 C 450.058594 2.488281 450.019531 2.488281 449.976562 2.449219 C 449.976562 2.449219 449.976562 2.449219 449.933594 2.449219 L 398.847656 2.449219 C 398.683594 2.449219 398.558594 2.53125 398.472656 2.65625 L 339.757812 101.015625 C 339.714844 101.097656 339.714844 101.179688 339.714844 101.265625 L 339.714844 135.722656 C 339.714844 135.722656 339.714844 135.722656 339.714844 135.765625 C 339.714844 135.804688 339.714844 135.847656 339.757812 135.890625 C 339.757812 135.890625 339.757812 135.929688 339.757812 135.929688 C 339.757812 135.972656 339.796875 136.011719 339.839844 136.054688 L 347.097656 143.644531 C 347.179688 143.726562 347.304688 143.769531 347.386719 143.769531 L 415.0625 143.769531 L 415.0625 179.222656 C 415.0625 179.222656 415.0625 179.222656 415.0625 179.261719 C 415.0625 179.304688 415.0625 179.347656 415.101562 179.386719 C 415.101562 179.386719 415.101562 179.429688 415.101562 179.429688 C 415.101562 179.472656 415.144531 179.511719 415.1875 179.554688 L 422.441406 187.140625 C 422.523438 187.226562 422.648438 187.265625 422.734375 187.265625 L 457.191406 187.265625 C 457.441406 187.265625 457.605469 187.101562 457.605469 186.851562 L 457.605469 143.726562 L 475.480469 143.726562 C 475.726562 143.726562 475.894531 143.558594 475.894531 143.3125 L 475.894531 108.851562 C 475.894531 108.726562 475.851562 108.644531 475.769531 108.5625 Z M 456.734375 100.847656 L 450.308594 100.847656 L 450.308594 3.898438 L 456.734375 10.617188 Z M 340.542969 101.347656 L 399.097656 3.277344 L 449.519531 3.277344 L 449.519531 101.265625 C 449.519531 101.511719 449.6875 101.679688 449.933594 101.679688 L 467.847656 101.679688 L 467.847656 135.308594 L 449.976562 135.308594 C 449.726562 135.308594 449.5625 135.472656 449.5625 135.722656 L 449.5625 178.808594 L 415.933594 178.808594 L 415.933594 135.765625 C 415.933594 135.515625 415.765625 135.351562 415.515625 135.351562 L 340.542969 135.351562 Z M 347.554688 142.898438 L 341.082031 136.136719 L 415.019531 136.136719 L 415.019531 142.898438 Z M 475.0625 142.898438 L 457.191406 142.898438 C 456.941406 142.898438 456.777344 143.0625 456.777344 143.3125 L 456.777344 186.394531 L 422.898438 186.394531 L 416.429688 179.636719 L 449.933594 179.636719 C 450.183594 179.636719 450.351562 179.472656 450.351562 179.222656 L 450.351562 136.136719 L 468.222656 136.136719 C 468.472656 136.136719 468.636719 135.972656 468.636719 135.722656 L 468.636719 102.300781 L 475.0625 109.019531 Z M 475.0625 142.898438 " fill-opacity="1" fill-rule="nonzero"></path></g><g clip-path="url(#93535a1ac8)"><g clip-path="url(#815bcc303f)"><g clip-path="url(#ccc10724fa)"><path fill="#ffffff" d="M 18.679688 31.8125 L 5.78125 27.953125 L 7.617188 21.8125 L 8.84375 22.179688 L 9.210938 20.953125 L 10.441406 21.320312 L 10.992188 19.476562 L 12.832031 20.027344 L 13.203125 18.800781 L 13.816406 18.984375 L 14.550781 16.527344 L 13.9375 16.34375 L 14.304688 15.117188 L 12.460938 14.566406 L 12.828125 13.335938 L 11.601562 12.96875 L 11.96875 11.742188 L 10.738281 11.375 L 12.578125 5.234375 L 25.476562 9.09375 L 23.640625 15.234375 L 22.414062 14.867188 L 22.046875 16.09375 L 20.816406 15.726562 L 20.449219 16.953125 L 18.609375 16.402344 L 18.242188 17.632812 L 17.625 17.449219 L 16.890625 19.902344 L 18.121094 20.269531 L 17.753906 21.5 L 18.980469 21.867188 L 18.429688 23.707031 L 19.65625 24.074219 L 19.289062 25.304688 L 20.519531 25.671875 Z M 26.398438 6.011719 L 13.5 2.152344 L 12.949219 3.992188 L 25.847656 7.851562 Z M 5.414062 29.179688 L 4.863281 31.023438 L 17.761719 34.882812 L 18.3125 33.039062 Z M 5.414062 29.179688 " fill-opacity="1" fill-rule="nonzero"></path></g></g></g><g clip-path="url(#bfd37b3485)"><g clip-path="url(#94c9f326e6)"><g clip-path="url(#3b58a18325)"><path fill="#000000" d="M 29.222656 5.515625 L 27.382812 4.964844 L 26.765625 4.78125 L 24.3125 4.046875 L 23.695312 3.863281 L 21.242188 3.128906 L 20.625 2.945312 L 17.558594 2.027344 L 16.9375 1.839844 L 16.324219 1.65625 L 15.707031 1.472656 L 13.253906 0.738281 L 12.636719 0.554688 L 10.796875 0.00390625 L 10.613281 0.617188 L 10.429688 1.234375 L 9.511719 4.300781 L 10.125 4.488281 L 11.351562 4.855469 L 10.617188 7.308594 L 10.433594 7.925781 L 9.515625 10.992188 L 9.332031 11.609375 L 9.148438 12.222656 L 10.375 12.589844 L 10.007812 13.816406 L 10.621094 14 L 11.238281 14.183594 L 11.054688 14.800781 L 10.871094 15.414062 L 12.710938 15.964844 L 12.160156 17.804688 L 11.976562 18.421875 L 11.363281 18.238281 L 11.179688 18.851562 L 9.953125 18.484375 L 9.765625 19.097656 L 9.582031 19.710938 L 8.355469 19.34375 L 7.988281 20.570312 L 6.761719 20.203125 L 6.578125 20.820312 L 5.660156 23.886719 L 5.472656 24.503906 L 4.738281 26.957031 L 4.554688 27.574219 L 2.714844 27.023438 L 1.796875 30.089844 L 1.613281 30.707031 L 1.429688 31.320312 L 3.882812 32.054688 L 4.5 32.238281 L 6.953125 32.972656 L 7.570312 33.15625 L 10.636719 34.074219 L 11.253906 34.257812 L 13.707031 34.992188 L 14.324219 35.175781 L 16.777344 35.910156 L 17.394531 36.09375 L 18.007812 36.277344 L 18.621094 36.464844 L 19.847656 36.832031 L 20.464844 37.015625 L 20.648438 36.398438 L 21.199219 34.558594 L 21.378906 33.957031 L 21.5625 33.34375 L 21.746094 32.726562 L 21.132812 32.542969 L 20.515625 32.359375 L 19.902344 32.175781 L 20.636719 29.722656 L 20.820312 29.105469 L 21.554688 26.652344 L 21.738281 26.035156 L 22.105469 24.808594 L 20.878906 24.441406 L 21.246094 23.214844 L 20.019531 22.847656 L 20.203125 22.230469 L 20.386719 21.617188 L 19.773438 21.433594 L 19.15625 21.25 L 19.339844 20.636719 L 18.726562 20.453125 L 19.09375 19.226562 L 19.277344 18.609375 L 19.460938 17.996094 L 20.078125 18.179688 L 21.304688 18.546875 L 21.671875 17.320312 L 22.898438 17.6875 L 23.265625 16.460938 L 23.882812 16.644531 L 24.496094 16.828125 L 24.679688 16.210938 L 25.414062 13.757812 L 25.597656 13.140625 L 25.964844 11.914062 L 26.152344 11.289062 L 26.335938 10.675781 L 26.519531 10.058594 L 26.703125 9.445312 L 27.929688 9.8125 L 28.546875 9.996094 L 29.097656 8.15625 L 29.28125 7.539062 L 29.832031 5.699219 Z M 26.214844 6.625 L 25.847656 7.851562 L 24.007812 7.300781 L 23.390625 7.117188 L 20.324219 6.199219 L 19.707031 6.015625 L 17.253906 5.28125 L 16.636719 5.097656 L 16.019531 4.910156 L 15.402344 4.726562 L 12.949219 3.992188 L 13.5 2.152344 L 15.953125 2.886719 L 16.570312 3.070312 L 19.023438 3.804688 L 19.640625 3.988281 L 22.09375 4.722656 L 22.710938 4.90625 L 25.164062 5.640625 L 25.78125 5.824219 L 26.394531 6.007812 L 26.210938 6.621094 Z M 5.046875 30.410156 L 5.230469 29.792969 L 5.414062 29.179688 L 7.253906 29.730469 L 7.871094 29.914062 L 10.9375 30.832031 L 11.554688 31.015625 L 12.167969 31.199219 L 12.78125 31.386719 L 14.007812 31.753906 L 14.625 31.9375 L 17.078125 32.671875 L 17.695312 32.855469 L 18.308594 33.039062 L 17.757812 34.878906 L 17.140625 34.695312 L 14.074219 33.777344 L 13.457031 33.59375 L 11.003906 32.859375 L 10.386719 32.675781 L 7.933594 31.941406 L 7.316406 31.757812 L 4.863281 31.023438 Z M 17.9375 20.878906 L 17.753906 21.492188 L 18.980469 21.859375 L 18.796875 22.472656 L 18.613281 23.089844 L 18.429688 23.703125 L 19.046875 23.886719 L 19.660156 24.070312 L 19.292969 25.296875 L 20.519531 25.664062 L 20.335938 26.28125 L 19.417969 29.347656 L 19.234375 29.964844 L 18.683594 31.804688 L 18.070312 31.621094 L 17.453125 31.4375 L 14.386719 30.519531 L 13.769531 30.335938 L 11.316406 29.601562 L 10.699219 29.417969 L 9.472656 29.050781 L 8.851562 28.863281 L 7.011719 28.3125 L 6.394531 28.128906 L 5.78125 27.945312 L 6.148438 26.71875 L 6.332031 26.109375 L 7.066406 23.65625 L 7.25 23.039062 L 7.617188 21.8125 L 8.84375 22.179688 L 9.210938 20.953125 L 9.828125 21.136719 L 10.441406 21.320312 L 10.625 20.703125 L 10.992188 19.476562 L 12.832031 20.027344 L 13.015625 19.414062 L 13.203125 18.800781 L 13.816406 18.984375 L 14 18.371094 L 14.183594 17.753906 L 14.550781 16.527344 L 13.9375 16.34375 L 14.304688 15.117188 L 13.6875 14.933594 L 12.460938 14.566406 L 12.644531 13.949219 L 12.828125 13.335938 L 11.601562 12.96875 L 11.96875 11.742188 L 11.355469 11.558594 L 10.738281 11.375 L 10.921875 10.761719 L 11.105469 10.144531 L 11.289062 9.53125 L 11.476562 8.917969 L 11.84375 7.691406 L 12.03125 7.0625 L 12.582031 5.222656 L 15.035156 5.957031 L 15.652344 6.140625 L 18.105469 6.875 L 18.722656 7.058594 L 21.789062 7.976562 L 22.40625 8.160156 L 24.859375 8.894531 L 25.476562 9.078125 L 25.109375 10.304688 L 24.925781 10.921875 L 24.742188 11.535156 L 24.554688 12.148438 L 24.1875 13.375 L 24.003906 13.992188 L 23.636719 15.21875 L 22.410156 14.851562 L 22.042969 16.078125 L 20.816406 15.710938 L 20.632812 16.324219 L 20.449219 16.941406 L 19.832031 16.757812 L 18.605469 16.390625 L 18.238281 17.617188 L 17.625 17.433594 L 17.257812 18.660156 L 17.074219 19.277344 L 16.890625 19.890625 L 18.117188 20.257812 L 17.929688 20.878906 Z M 17.9375 20.878906 " fill-opacity="1" fill-rule="nonzero"></path></g></g></g><g clip-path="url(#aff9a44dc4)"><g clip-path="url(#a0d3c2499b)"><g clip-path="url(#f4956374cf)"><path fill="#000000" d="M 22.9375 10.878906 L 22.570312 12.105469 L 21.953125 11.921875 L 20.726562 11.554688 L 21.09375 10.328125 L 21.707031 10.511719 L 22.324219 10.695312 Z M 15.976562 29.664062 L 15.363281 29.480469 L 15.179688 30.09375 L 14.996094 30.710938 L 15.609375 30.894531 L 16.226562 31.078125 L 16.839844 31.261719 L 17.023438 30.648438 L 17.207031 30.03125 L 16.59375 29.847656 Z M 15.730469 28.253906 L 13.890625 27.703125 L 13.523438 28.929688 L 15.363281 29.480469 Z M 19.5 11.1875 L 18.886719 11.003906 L 18.699219 11.617188 L 18.515625 12.234375 L 19.132812 12.417969 L 20.359375 12.785156 L 20.542969 12.167969 L 20.726562 11.554688 Z M 12.292969 28.5625 L 11.679688 28.378906 L 11.496094 28.992188 L 11.3125 29.609375 L 12.539062 29.976562 L 13.15625 30.160156 L 13.339844 29.542969 L 13.523438 28.929688 L 12.910156 28.746094 Z M 13.277344 27.519531 L 13.890625 27.703125 L 14.074219 27.089844 L 14.257812 26.472656 L 13.644531 26.289062 L 13.027344 26.105469 L 12.414062 25.921875 L 12.230469 26.539062 L 12.046875 27.152344 L 12.660156 27.335938 Z M 16.410156 17.035156 L 17.027344 17.21875 L 17.394531 15.992188 L 16.777344 15.808594 L 15.550781 15.441406 L 15.183594 16.667969 Z M 17.289062 11.867188 L 16.675781 11.683594 L 16.308594 12.910156 L 18.148438 13.460938 L 18.515625 12.234375 Z M 18.269531 10.820312 L 18.886719 11.003906 L 19.253906 9.777344 L 18.636719 9.59375 L 17.410156 9.226562 L 17.042969 10.453125 Z M 13.144531 23.460938 L 12.960938 24.074219 L 13.574219 24.257812 L 14.191406 24.441406 L 14.804688 24.625 L 14.988281 24.011719 L 15.171875 23.394531 L 14.558594 23.210938 L 13.941406 23.027344 L 13.328125 22.84375 Z M 12.042969 27.148438 L 11.425781 26.964844 L 10.199219 26.597656 L 10.015625 27.210938 L 9.832031 27.828125 L 11.058594 28.195312 L 11.675781 28.378906 L 11.859375 27.761719 Z M 17.035156 10.453125 L 15.195312 9.902344 L 14.828125 11.128906 L 16.667969 11.679688 Z M 15.5625 8.671875 L 14.949219 8.488281 L 14.332031 8.304688 L 13.71875 8.121094 L 13.535156 8.734375 L 13.351562 9.351562 L 13.964844 9.535156 L 14.582031 9.71875 L 15.195312 9.902344 L 15.378906 9.285156 Z M 8.605469 27.460938 L 7.988281 27.277344 L 7.621094 28.503906 L 8.238281 28.6875 L 9.464844 29.054688 L 9.832031 27.828125 Z M 8.605469 27.460938 " fill-opacity="1" fill-rule="nonzero"></path></g></g></g><g clip-path="url(#195a97f76a)"><g clip-path="url(#6c926bcb1d)"><g clip-path="url(#fd9db13733)"><path fill="#ffffff" d="M 530.382812 177.347656 L 517.828125 182.21875 L 515.511719 176.242188 L 516.707031 175.78125 L 516.242188 174.585938 L 517.4375 174.121094 L 516.742188 172.328125 L 518.535156 171.632812 L 518.070312 170.4375 L 518.667969 170.207031 L 517.738281 167.816406 L 517.140625 168.046875 L 516.679688 166.851562 L 514.886719 167.550781 L 514.421875 166.355469 L 513.226562 166.816406 L 512.765625 165.621094 L 511.570312 166.085938 L 509.25 160.113281 L 521.804688 155.238281 L 524.121094 161.214844 L 522.925781 161.679688 L 523.390625 162.875 L 522.195312 163.335938 L 522.660156 164.53125 L 520.867188 165.226562 L 521.332031 166.421875 L 520.734375 166.65625 L 521.660156 169.042969 L 522.855469 168.582031 L 523.320312 169.777344 L 524.515625 169.3125 L 525.210938 171.105469 L 526.40625 170.640625 L 526.871094 171.835938 L 528.0625 171.371094 Z M 520.640625 152.242188 L 508.085938 157.113281 L 508.78125 158.90625 L 521.335938 154.03125 Z M 518.292969 183.414062 L 518.988281 185.207031 L 531.542969 180.335938 L 530.847656 178.542969 Z M 518.292969 183.414062 " fill-opacity="1" fill-rule="nonzero"></path></g></g></g><g clip-path="url(#01bde3856f)"><g clip-path="url(#f9401e4a7d)"><g clip-path="url(#c2b9aa0c91)"><path fill="#000000" d="M 522.566406 150.117188 L 521.96875 150.351562 L 520.773438 150.8125 L 520.175781 151.046875 L 518.980469 151.507812 L 518.382812 151.742188 L 517.1875 152.203125 L 516.589844 152.4375 L 515.394531 152.898438 L 514.796875 153.132812 L 514.199219 153.363281 L 513.601562 153.597656 L 513.007812 153.828125 L 512.410156 154.058594 L 511.8125 154.292969 L 511.214844 154.523438 L 510.609375 154.757812 L 510.011719 154.988281 L 509.414062 155.222656 L 508.21875 155.683594 L 507.621094 155.917969 L 506.425781 156.378906 L 505.828125 156.613281 L 505.230469 156.84375 L 504.636719 157.078125 L 504.867188 157.671875 L 505.097656 158.269531 L 505.332031 158.867188 L 505.792969 160.0625 L 506.027344 160.660156 L 506.257812 161.257812 L 507.453125 160.796875 L 508.050781 160.5625 L 508.28125 161.160156 L 508.515625 161.757812 L 508.976562 162.953125 L 509.210938 163.550781 L 509.671875 164.746094 L 509.90625 165.34375 L 510.136719 165.941406 L 510.371094 166.539062 L 510.832031 167.734375 L 511.429688 167.5 L 512.027344 167.269531 L 512.257812 167.867188 L 512.492188 168.464844 L 513.089844 168.234375 L 513.6875 168 L 514.148438 169.195312 L 514.746094 168.964844 L 515.34375 168.730469 L 515.941406 168.5 L 516.175781 169.097656 L 516.636719 170.292969 L 516.871094 170.890625 L 516.273438 171.121094 L 516.503906 171.71875 L 515.90625 171.953125 L 515.308594 172.183594 L 515.542969 172.78125 L 515.773438 173.378906 L 514.578125 173.839844 L 514.808594 174.4375 L 515.042969 175.035156 L 514.445312 175.269531 L 513.847656 175.5 L 514.078125 176.097656 L 514.3125 176.695312 L 514.773438 177.890625 L 515.007812 178.488281 L 515.46875 179.683594 L 515.703125 180.28125 L 516.164062 181.476562 L 516.398438 182.074219 L 516.628906 182.671875 L 515.433594 183.132812 L 514.835938 183.367188 L 515.070312 183.964844 L 515.53125 185.160156 L 515.765625 185.757812 L 515.996094 186.355469 L 516.226562 186.949219 L 516.460938 187.546875 L 517.65625 187.085938 L 518.253906 186.851562 L 519.449219 186.390625 L 520.046875 186.15625 L 521.242188 185.695312 L 521.835938 185.460938 L 522.433594 185.230469 L 523.03125 184.996094 L 524.226562 184.535156 L 524.824219 184.300781 L 526.019531 183.839844 L 526.617188 183.605469 L 527.8125 183.144531 L 528.410156 182.910156 L 529.605469 182.449219 L 530.203125 182.214844 L 530.800781 181.984375 L 531.398438 181.75 L 532.59375 181.289062 L 533.191406 181.054688 L 534.386719 180.59375 L 534.984375 180.359375 L 534.75 179.761719 L 534.519531 179.164062 L 534.285156 178.566406 L 534.054688 177.96875 L 533.828125 177.386719 L 533.597656 176.789062 L 533.363281 176.191406 L 532.167969 176.652344 L 531.570312 176.886719 L 531.109375 175.691406 L 530.875 175.09375 L 530.414062 173.898438 L 530.179688 173.300781 L 529.71875 172.105469 L 529.484375 171.507812 L 529.253906 170.910156 L 529.019531 170.3125 L 528.789062 169.714844 L 528.191406 169.949219 L 527.59375 170.179688 L 527.363281 169.582031 L 527.128906 168.984375 L 526.53125 169.214844 L 525.9375 169.449219 L 525.703125 168.851562 L 525.472656 168.253906 L 524.875 168.484375 L 524.277344 168.71875 L 524.046875 168.121094 L 523.449219 168.351562 L 523.214844 167.753906 L 522.984375 167.15625 L 522.75 166.558594 L 522.519531 165.960938 L 523.117188 165.730469 L 523.714844 165.496094 L 524.3125 165.265625 L 524.082031 164.667969 L 523.847656 164.070312 L 524.445312 163.839844 L 525.042969 163.605469 L 524.8125 163.007812 L 524.578125 162.414062 L 525.175781 162.179688 L 525.773438 161.949219 L 525.3125 160.753906 L 525.078125 160.15625 L 524.617188 158.960938 L 524.382812 158.363281 L 523.921875 157.167969 L 523.683594 156.558594 L 523.453125 155.960938 L 523.21875 155.363281 L 522.988281 154.765625 L 523.585938 154.535156 L 524.183594 154.300781 L 524.78125 154.070312 L 524.546875 153.472656 L 524.085938 152.277344 L 523.851562 151.679688 L 523.390625 150.484375 L 523.15625 149.886719 Z M 520.871094 152.835938 L 521.101562 153.433594 L 521.335938 154.03125 L 520.738281 154.265625 L 519.542969 154.726562 L 518.945312 154.960938 L 518.347656 155.191406 L 517.75 155.425781 L 516.554688 155.886719 L 515.957031 156.121094 L 514.761719 156.582031 L 514.164062 156.816406 L 512.96875 157.277344 L 512.371094 157.511719 L 511.769531 157.746094 L 510.574219 158.207031 L 509.976562 158.441406 L 509.378906 158.671875 L 508.78125 158.90625 L 508.550781 158.308594 L 508.316406 157.710938 L 508.085938 157.113281 L 508.683594 156.878906 L 509.878906 156.417969 L 510.476562 156.183594 L 511.074219 155.953125 L 511.671875 155.71875 L 512.867188 155.257812 L 513.464844 155.023438 L 514.660156 154.5625 L 515.257812 154.328125 L 515.855469 154.097656 L 516.449219 153.867188 L 517.046875 153.632812 L 518.242188 153.171875 L 518.839844 152.9375 L 519.4375 152.707031 L 520.035156 152.472656 L 520.632812 152.242188 L 520.867188 152.839844 Z M 518.757812 184.609375 L 518.523438 184.011719 L 518.292969 183.414062 L 518.890625 183.183594 L 519.488281 182.949219 L 520.683594 182.488281 L 521.28125 182.253906 L 521.878906 182.023438 L 522.476562 181.789062 L 523.671875 181.328125 L 524.269531 181.09375 L 525.464844 180.632812 L 526.0625 180.398438 L 526.65625 180.167969 L 527.253906 179.9375 L 527.851562 179.703125 L 529.046875 179.242188 L 529.644531 179.007812 L 530.242188 178.777344 L 530.839844 178.542969 L 531.074219 179.140625 L 531.535156 180.335938 L 530.9375 180.570312 L 529.742188 181.03125 L 529.144531 181.265625 L 528.546875 181.496094 L 527.953125 181.726562 L 527.355469 181.960938 L 526.757812 182.191406 L 526.160156 182.425781 L 524.964844 182.886719 L 524.367188 183.121094 L 523.171875 183.582031 L 522.574219 183.816406 L 521.378906 184.277344 L 520.78125 184.511719 L 519.585938 184.972656 L 518.988281 185.207031 Z M 523.085938 169.171875 L 523.316406 169.769531 L 523.914062 169.539062 L 524.511719 169.304688 L 524.746094 169.902344 L 525.207031 171.097656 L 526.402344 170.636719 L 526.636719 171.234375 L 526.867188 171.828125 L 528.0625 171.367188 L 528.292969 171.964844 L 528.527344 172.5625 L 528.988281 173.757812 L 529.222656 174.355469 L 529.453125 174.953125 L 529.683594 175.546875 L 529.917969 176.144531 L 530.378906 177.339844 L 529.78125 177.574219 L 529.1875 177.804688 L 528.589844 178.035156 L 527.992188 178.269531 L 526.796875 178.730469 L 526.199219 178.964844 L 525.601562 179.195312 L 525.003906 179.429688 L 523.808594 179.890625 L 523.210938 180.125 L 522.015625 180.585938 L 521.417969 180.820312 L 520.816406 181.054688 L 519.621094 181.515625 L 519.023438 181.75 L 517.828125 182.210938 L 517.59375 181.617188 L 517.363281 181.019531 L 517.132812 180.425781 L 516.671875 179.230469 L 516.4375 178.632812 L 516.207031 178.035156 L 515.972656 177.4375 L 515.511719 176.242188 L 516.707031 175.78125 L 516.472656 175.183594 L 516.242188 174.585938 L 516.839844 174.351562 L 517.4375 174.121094 L 517.203125 173.523438 L 516.742188 172.328125 L 517.9375 171.867188 L 518.535156 171.632812 L 518.300781 171.035156 L 518.070312 170.4375 L 518.667969 170.207031 L 518.4375 169.609375 L 518.203125 169.011719 L 517.972656 168.414062 L 517.738281 167.816406 L 517.144531 168.046875 L 516.910156 167.449219 L 516.679688 166.851562 L 516.082031 167.085938 L 515.484375 167.316406 L 514.886719 167.550781 L 514.65625 166.953125 L 514.421875 166.355469 L 513.226562 166.816406 L 512.765625 165.621094 L 512.167969 165.855469 L 511.570312 166.085938 L 511.335938 165.488281 L 510.875 164.292969 L 510.640625 163.695312 L 510.410156 163.097656 L 510.175781 162.5 L 509.941406 161.890625 L 509.710938 161.292969 L 509.476562 160.695312 L 509.246094 160.097656 L 510.441406 159.636719 L 511.039062 159.402344 L 512.234375 158.941406 L 512.832031 158.707031 L 514.027344 158.246094 L 514.621094 158.011719 L 515.21875 157.78125 L 515.816406 157.546875 L 517.011719 157.085938 L 517.609375 156.851562 L 518.804688 156.390625 L 519.402344 156.15625 L 520.597656 155.695312 L 521.195312 155.460938 L 521.792969 155.230469 L 522.023438 155.828125 L 522.257812 156.425781 L 522.71875 157.621094 L 522.953125 158.21875 L 523.414062 159.414062 L 523.648438 160.011719 L 523.878906 160.609375 L 524.113281 161.203125 L 523.515625 161.4375 L 522.917969 161.667969 L 523.378906 162.863281 L 522.78125 163.09375 L 522.183594 163.328125 L 522.417969 163.925781 L 522.648438 164.523438 L 521.453125 164.984375 L 520.855469 165.21875 L 521.089844 165.816406 L 521.320312 166.414062 L 520.722656 166.644531 L 520.953125 167.242188 L 521.1875 167.839844 L 521.648438 169.035156 L 522.246094 168.804688 L 522.84375 168.570312 L 523.078125 169.175781 Z M 523.085938 169.171875 " fill-opacity="1" fill-rule="nonzero"></path></g></g></g><g clip-path="url(#46e3245de2)"><g clip-path="url(#767979096e)"><g clip-path="url(#a761e7da36)"><path fill="#000000" d="M 520.894531 158.210938 L 521.125 158.808594 L 521.359375 159.40625 L 520.164062 159.867188 L 519.566406 160.101562 L 519.332031 159.503906 L 519.101562 158.90625 L 519.699219 158.671875 Z M 526.933594 177.3125 L 526.335938 177.542969 L 526.796875 178.738281 L 527.394531 178.507812 L 527.992188 178.273438 L 528.589844 178.042969 L 528.359375 177.445312 L 528.125 176.847656 L 527.527344 177.078125 Z M 525.871094 176.347656 L 525.273438 176.582031 L 524.078125 177.042969 L 524.308594 177.640625 L 524.542969 178.238281 L 525.140625 178.007812 L 525.738281 177.773438 L 526.335938 177.542969 L 526.101562 176.945312 Z M 518.371094 160.5625 L 517.773438 160.796875 L 518.234375 161.992188 L 518.832031 161.757812 L 520.027344 161.296875 L 519.566406 160.101562 Z M 523.347656 178.703125 L 522.75 178.933594 L 522.980469 179.53125 L 523.214844 180.128906 L 523.808594 179.898438 L 524.40625 179.664062 L 525.003906 179.433594 L 524.542969 178.238281 L 523.945312 178.472656 Z M 523.480469 177.277344 L 524.078125 177.042969 L 523.847656 176.445312 L 523.613281 175.847656 L 523.015625 176.082031 L 521.820312 176.542969 L 522.054688 177.140625 L 522.285156 177.738281 Z M 519.523438 167.074219 L 520.121094 166.84375 L 519.886719 166.246094 L 519.65625 165.648438 L 519.058594 165.882812 L 517.863281 166.34375 L 518.09375 166.941406 L 518.328125 167.539062 L 518.925781 167.308594 Z M 517.042969 162.453125 L 516.445312 162.6875 L 516.90625 163.882812 L 517.503906 163.648438 L 518.699219 163.1875 L 518.46875 162.589844 L 518.234375 161.992188 L 517.640625 162.222656 Z M 517.175781 161.027344 L 517.773438 160.796875 L 517.539062 160.199219 L 517.308594 159.601562 L 516.710938 159.832031 L 516.113281 160.066406 L 515.515625 160.296875 L 515.75 160.894531 L 515.980469 161.492188 L 516.578125 161.257812 Z M 520.886719 174.152344 L 521.117188 174.75 L 521.714844 174.515625 L 522.910156 174.054688 L 522.679688 173.457031 L 522.445312 172.859375 L 521.25 173.320312 L 520.652344 173.554688 Z M 522.28125 177.742188 L 521.683594 177.972656 L 521.085938 178.207031 L 520.488281 178.4375 L 520.949219 179.632812 L 521.546875 179.402344 L 522.144531 179.167969 L 522.742188 178.9375 Z M 515.972656 161.492188 L 515.375 161.726562 L 514.777344 161.957031 L 514.179688 162.191406 L 514.414062 162.785156 L 514.644531 163.382812 L 515.839844 162.921875 L 516.4375 162.6875 L 516.207031 162.089844 Z M 513.71875 160.996094 L 512.523438 161.457031 L 511.925781 161.691406 L 512.15625 162.289062 L 512.390625 162.886719 L 512.988281 162.652344 L 513.582031 162.421875 L 514.179688 162.191406 Z M 519.753906 180.097656 L 519.15625 180.328125 L 519.390625 180.925781 L 519.621094 181.523438 L 520.21875 181.292969 L 520.816406 181.058594 L 521.414062 180.828125 L 521.183594 180.230469 L 520.949219 179.632812 L 520.351562 179.863281 Z M 519.753906 180.097656 " fill-opacity="1" fill-rule="nonzero"></path></g></g></g></svg>